<svg xmlns="http://www.w3.org/2000/svg" fill="crimson" height="24" viewBox="0 -960 960 960" width="24"><path d="M267.691-167.847v-315.227h73.616q6.231 0 12.654 1.307 6.423 1.308 12.654 3.308l258.922 95.692q15.923 5.769 25.962 19.731 10.038 13.961 10.038 30.269 0 16-10.846 25.923-10.846 9.923-25.615 9.923H548.54q-12.693 0-23.655-1.462-10.962-1.462-22.27-5.769l-67.847-25.385-12.231 34.384 77.77 27q10.462 3.693 22.539 5.154 12.078 1.462 23.925 1.462h240.151q29.692 0 51.384 20.5 21.693 20.5 21.693 51.038L560.615-83.846l-292.924-84.001ZM67.694-100.001v-383.073h139.999v383.073H67.694Zm566.152-352.308L475.539-605.462q-28.693-27.692-48.269-61.692-19.577-34-19.577-73.922 0-49.615 34.653-84.269 34.654-34.654 84.269-34.654 32.385 0 59.808 15.616 27.423 15.616 47.423 39.769 20-24.153 47.423-39.769 27.423-15.616 59.807-15.616 49.615 0 84.269 34.654t34.654 84.269q0 39.922-19.27 73.922-19.269 34-47.961 61.692L633.846-452.309Z"/></svg>