<svg xmlns="http://www.w3.org/2000/svg" height="24" viewBox="0 -960 960 960" width="24"><path d="M480-370.001q50.615 0 91.961-24.038t66.576-63.653q-33.076-25.538-73.422-38.923-40.346-13.384-85.115-13.384t-85.115 13.384q-40.346 13.385-73.422 38.923 25.23 39.615 66.576 63.653 41.346 24.038 91.961 24.038Zm0-200q29.154 0 49.576-20.423 20.423-20.422 20.423-49.576t-20.423-49.576Q509.154-709.999 480-709.999t-49.576 20.423Q410.001-669.154 410.001-640t20.423 49.576q20.422 20.423 49.576 20.423Zm0 470.384Q329.001-230.463 253.539-343.154q-75.461-112.692-75.461-206.923 0-138.46 89.577-224.191Q357.231-859.999 480-859.999t212.345 85.731q89.577 85.731 89.577 224.191 0 94.231-75.461 206.923Q630.999-230.463 480-99.617Z"/></svg>